<svg width="24" height="24" viewBox="0 0 24 24" fill="none" xmlns="http://www.w3.org/2000/svg">
<path d="M13.4697 3.49463C15.1637 3.90555 18.8979 5.78969 20.2833 10.039" stroke="white" stroke-width="1.2"/>
<path d="M13 6.02954C14.2721 6.35088 17.0797 7.81997 18.1331 11.1257" stroke="white" stroke-width="1.2"/>
<path d="M7.65447 5.32829C7.59544 5.25236 7.52092 5.18985 7.43587 5.14492C7.35082 5.09999 7.25719 5.07368 7.16119 5.06772C7.06519 5.06176 6.96902 5.07629 6.87907 5.11036C6.78912 5.14442 6.70744 5.19724 6.63947 5.26529L5.60547 6.30029C5.12247 6.78429 4.94447 7.4693 5.15547 8.0703C6.03121 10.5579 7.45577 12.8164 9.32347 14.6783C11.1854 16.546 13.4439 17.9705 15.9315 18.8463C16.5325 19.0573 17.2175 18.8793 17.7015 18.3963L18.7355 17.3623C18.8035 17.2943 18.8563 17.2127 18.8904 17.1227C18.9245 17.0327 18.939 16.9366 18.933 16.8406C18.9271 16.7446 18.9008 16.6509 18.8558 16.5659C18.8109 16.4808 18.7484 16.4063 18.6725 16.3473L16.3655 14.5533C16.2843 14.4904 16.19 14.4467 16.0895 14.4256C15.989 14.4044 15.8851 14.4064 15.7855 14.4313L13.5955 14.9783C13.3032 15.0514 12.9969 15.0475 12.7065 14.967C12.4161 14.8866 12.1515 14.7324 11.9385 14.5193L9.48247 12.0623C9.26924 11.8493 9.1148 11.5848 9.03418 11.2944C8.95357 11.004 8.94954 10.6977 9.02247 10.4053L9.57047 8.2153C9.59538 8.11569 9.59734 8.01173 9.57621 7.91126C9.55507 7.81079 9.51139 7.71642 9.44847 7.63529L7.65447 5.32829ZM5.88447 4.51129C6.05947 4.33624 6.2697 4.20043 6.50121 4.11286C6.73272 4.02529 6.98021 3.98797 7.22725 4.00339C7.47429 4.0188 7.71522 4.0866 7.93405 4.20227C8.15288 4.31794 8.3446 4.47885 8.49647 4.6743L10.2905 6.98029C10.6195 7.40329 10.7355 7.9543 10.6055 8.4743L10.0585 10.6643C10.0302 10.7777 10.0317 10.8965 10.0629 11.0092C10.0941 11.1219 10.1539 11.2246 10.2365 11.3073L12.6935 13.7643C12.7763 13.847 12.8792 13.9069 12.992 13.9381C13.1049 13.9693 13.2239 13.9708 13.3375 13.9423L15.5265 13.3953C15.7831 13.3311 16.0509 13.3261 16.3098 13.3807C16.5686 13.4353 16.8116 13.548 17.0205 13.7103L19.3265 15.5043C20.1555 16.1493 20.2315 17.3743 19.4895 18.1153L18.4555 19.1493C17.7155 19.8893 16.6095 20.2143 15.5785 19.8513C12.9397 18.9228 10.5437 17.4121 8.56847 15.4313C6.58776 13.4563 5.07708 11.0608 4.14847 8.4223C3.78647 7.3923 4.11147 6.28529 4.85147 5.54529L5.88547 4.51129H5.88447Z" fill="white"/>
</svg>
