<svg width="24" height="24" viewBox="0 0 24 24" fill="none" xmlns="http://www.w3.org/2000/svg">
<circle cx="12" cy="12" r="9.35" stroke="black" stroke-width="1.3"/>
<path d="M16.7057 17.0705V15.9038C16.7057 15.2849 16.4578 14.6914 16.0165 14.2538C15.5753 13.8162 14.9768 13.5703 14.3528 13.5703H9.64688C9.02284 13.5703 8.42437 13.8162 7.9831 14.2538C7.54184 14.6914 7.29395 15.2849 7.29395 15.9038V17.0705" stroke="black" stroke-width="1.3" stroke-linecap="round" stroke-linejoin="round"/>
<path d="M11.9999 11.2333C13.2994 11.2333 14.3529 10.1886 14.3529 8.89987C14.3529 7.61114 13.2994 6.56641 11.9999 6.56641C10.7004 6.56641 9.64697 7.61114 9.64697 8.89987C9.64697 10.1886 10.7004 11.2333 11.9999 11.2333Z" stroke="black" stroke-width="1.3" stroke-linecap="round" stroke-linejoin="round"/>
</svg>
